<mxfile host="65bd71144e">
    <diagram id="1INFlNTnX8W9YsKnjOnV" name="Page-1">
        <mxGraphModel dx="1676" dy="467" grid="1" gridSize="10" guides="1" tooltips="1" connect="1" arrows="1" fold="1" page="1" pageScale="1" pageWidth="850" pageHeight="1100" math="0" shadow="0">
            <root>
                <mxCell id="0"/>
                <mxCell id="1" parent="0"/>
                <mxCell id="2" value="Architecture du projet" style="swimlane;childLayout=stackLayout;resizeParent=1;resizeParentMax=0;horizontal=1;startSize=20;horizontalStack=0;html=1;fillColor=#fff2cc;strokeColor=#d6b656;shadow=1;" vertex="1" parent="1">
                    <mxGeometry x="-830" y="170" width="650" height="388.5" as="geometry"/>
                </mxCell>
                <mxCell id="3" value="Phase 1" style="swimlane;startSize=20;horizontal=0;html=1;fillColor=#fff2cc;strokeColor=#d6b656;shadow=1;" vertex="1" parent="2">
                    <mxGeometry y="20" width="650" height="120" as="geometry"/>
                </mxCell>
                <mxCell id="4" value="&lt;b&gt;CNN&lt;/b&gt;" style="shape=ext;double=1;rounded=1;whiteSpace=wrap;html=1;fillColor=#ffe6cc;strokeColor=#d79b00;" vertex="1" parent="3">
                    <mxGeometry x="70" y="26.5" width="100" height="67" as="geometry"/>
                </mxCell>
                <mxCell id="5" value="&lt;b&gt;Transformers&lt;/b&gt;" style="shape=ext;double=1;rounded=1;whiteSpace=wrap;html=1;arcSize=26;fillColor=#ffe6cc;strokeColor=#d79b00;" vertex="1" parent="3">
                    <mxGeometry x="390" y="26" width="100" height="67" as="geometry"/>
                </mxCell>
                <mxCell id="6" value="" style="endArrow=classic;html=1;exitX=1;exitY=0.5;exitDx=0;exitDy=0;entryX=0;entryY=0.5;entryDx=0;entryDy=0;" edge="1" parent="3" source="4" target="5">
                    <mxGeometry width="50" height="50" relative="1" as="geometry">
                        <mxPoint x="270" y="190" as="sourcePoint"/>
                        <mxPoint x="320" y="140" as="targetPoint"/>
                    </mxGeometry>
                </mxCell>
                <mxCell id="7" value="Phase 2" style="swimlane;startSize=20;horizontal=0;html=1;fillColor=#fff2cc;strokeColor=#d6b656;shadow=1;" vertex="1" parent="2">
                    <mxGeometry y="140" width="650" height="120" as="geometry"/>
                </mxCell>
                <mxCell id="9" value="&lt;b&gt;LSTM&lt;/b&gt;" style="shape=ext;double=1;rounded=1;whiteSpace=wrap;html=1;fillColor=#ffe6cc;strokeColor=#d79b00;" vertex="1" parent="7">
                    <mxGeometry x="400" y="26.5" width="100" height="67" as="geometry"/>
                </mxCell>
                <mxCell id="10" value="" style="endArrow=classic;html=1;exitX=0;exitY=0.5;exitDx=0;exitDy=0;entryX=1;entryY=0.627;entryDx=0;entryDy=0;entryPerimeter=0;" edge="1" parent="7" source="9" target="22">
                    <mxGeometry width="50" height="50" relative="1" as="geometry">
                        <mxPoint x="300" y="80" as="sourcePoint"/>
                        <mxPoint x="240" y="60" as="targetPoint"/>
                    </mxGeometry>
                </mxCell>
                <mxCell id="22" value="&lt;b&gt;SSM&lt;/b&gt;" style="shape=ext;double=1;rounded=1;whiteSpace=wrap;html=1;fillColor=#ffe6cc;strokeColor=#d79b00;" vertex="1" parent="7">
                    <mxGeometry x="70" y="20" width="100" height="67" as="geometry"/>
                </mxCell>
                <mxCell id="11" value="Phase 3" style="swimlane;startSize=20;horizontal=0;html=1;fillColor=#fff2cc;strokeColor=#d6b656;shadow=1;" vertex="1" parent="2">
                    <mxGeometry y="260" width="650" height="128.5" as="geometry"/>
                </mxCell>
                <mxCell id="12" value="&lt;b&gt;Best Prediction&lt;/b&gt;" style="rhombus;whiteSpace=wrap;html=1;fillColor=#f8cecc;strokeColor=#b85450;" vertex="1" parent="11">
                    <mxGeometry x="120" y="40" width="80" height="80" as="geometry"/>
                </mxCell>
                <mxCell id="14" style="edgeStyle=none;html=1;exitX=1;exitY=0.5;exitDx=0;exitDy=0;" edge="1" parent="11" source="12">
                    <mxGeometry relative="1" as="geometry">
                        <mxPoint x="230" y="80" as="targetPoint"/>
                    </mxGeometry>
                </mxCell>
                <mxCell id="20" value="&lt;b&gt;Optimisation de lâ€™affectation des ressources de maintenance&lt;/b&gt;" style="shape=ext;double=1;rounded=1;whiteSpace=wrap;html=1;fillColor=#fff2cc;strokeColor=#d6b656;" vertex="1" parent="11">
                    <mxGeometry x="230" y="40" width="400" height="68.5" as="geometry"/>
                </mxCell>
                <mxCell id="18" style="edgeStyle=none;html=1;exitX=0.5;exitY=1;exitDx=0;exitDy=0;entryX=0.388;entryY=0.026;entryDx=0;entryDy=0;entryPerimeter=0;" edge="1" parent="2" source="5" target="9">
                    <mxGeometry relative="1" as="geometry"/>
                </mxCell>
                <mxCell id="23" style="edgeStyle=none;html=1;exitX=0;exitY=0.5;exitDx=0;exitDy=0;entryX=0;entryY=0.5;entryDx=0;entryDy=0;" edge="1" parent="2" source="22" target="12">
                    <mxGeometry relative="1" as="geometry">
                        <mxPoint x="90" y="284.75" as="sourcePoint"/>
                        <mxPoint x="270" y="285.75" as="targetPoint"/>
                        <Array as="points">
                            <mxPoint x="30" y="194"/>
                            <mxPoint x="30" y="280"/>
                            <mxPoint x="30" y="340"/>
                        </Array>
                    </mxGeometry>
                </mxCell>
            </root>
        </mxGraphModel>
    </diagram>
</mxfile>